<svg width="117" height="64" viewBox="0 0 117 64" fill="none" xmlns="http://www.w3.org/2000/svg">
<path d="M1.49719 32.0014C1.49719 14.486 27.9539 1.44336 58.4934 1.44336C89.0329 1.44336 115.503 14.486 115.503 32.0014C115.503 49.5222 89.0329 62.5328 58.4934 62.5328C27.9539 62.5328 1.49719 49.5222 1.49719 32.0014Z" fill="white"/>
<path fill-rule="evenodd" clip-rule="evenodd" d="M58.4932 0C90.7883 0 117 14.3389 117 32.0013C117 49.6664 90.7883 64 58.4932 64C26.2117 64 0 49.6664 0 32.0013C0 14.3389 26.2117 0 58.4932 0ZM58.4932 2.8865C27.8448 2.8865 2.95324 15.9559 2.95324 32.0013C2.95324 48.0535 27.8448 61.0921 58.4932 61.0921C89.1415 61.0921 114.033 48.0535 114.033 32.0013C114.033 15.9559 89.1415 2.8865 58.4932 2.8865ZM48.2181 35.0736H36.7046C36.8406 37.8558 38.4329 39.1454 40.8146 39.1454C42.5838 39.1454 43.795 38.1672 44.1081 37.1823H47.8779C46.9116 40.5486 44.1081 42.1067 40.6513 42.1067C35.7519 42.1067 32.7034 38.7966 32.7034 34.0687C32.7034 29.489 35.9288 26.0012 40.6513 26.0012C45.9589 26.0012 48.5175 30.375 48.2181 35.0736ZM40.5424 28.885C38.1471 28.885 36.9223 30.4499 36.7318 32.4517H44.2033C43.9175 30.3149 43.0057 28.885 40.5424 28.885ZM98.0693 35.0736H86.5558C86.6782 37.8558 88.2842 39.1454 90.6522 39.1454C92.435 39.1454 93.6463 38.1672 93.9593 37.1823H97.7291C96.7628 40.5486 93.9593 42.1067 90.5025 42.1067C85.5895 42.1067 82.5546 38.7966 82.5546 34.0687C82.5546 29.489 85.78 26.0012 90.5025 26.0012C95.8101 26.0012 98.3687 30.375 98.0693 35.0736ZM90.38 28.885C87.9984 28.885 86.7735 30.4499 86.5694 32.4517H94.0546C93.7688 30.3149 92.8569 28.885 90.38 28.885ZM12.5615 41.6925H16.8348V32.5907H26.062V41.6925H30.3353V20.5529H26.062V29.2084H16.8348V20.5529H12.5615V41.6925ZM50.5725 41.6925H54.6009V33.4286C54.6009 30.3256 55.7169 29.0547 58.0305 29.0547C60.0175 29.0547 60.9157 30.2962 60.9157 32.8072V41.6925H64.9304V32.2953C64.9304 28.5135 63.7872 26.0012 59.2281 26.0012C57.4317 26.0012 55.5536 26.8297 54.4784 28.5429H54.3831V26.4154H50.5725V41.6925ZM68.36 41.6925H72.3748V33.4192L78.3085 41.6925H83.3031L76.7706 33.1199L82.5546 26.4154H77.7641L72.3748 33.0023V20.5529H68.36V41.6925ZM100.424 41.6925H104.439V20.5529H100.424V41.6925Z" fill="#EC1B23"/>
</svg>
